<?xml version="1.0" encoding="UTF-8"?>
<!-- Do not edit this file with editors other than draw.io -->
<svg xmlns="http://www.w3.org/2000/svg" xmlns:xlink="http://www.w3.org/1999/xlink" version="1.1" width="1158px" height="1366px" viewBox="-0.5 -0.5 1158 1366" style="background-color: rgb(255, 255, 255);">
  <defs>
    <linearGradient x1="0%" y1="0%" x2="0%" y2="100%" id="mx-gradient-d5e8d4-1-97d077-1-s-0">
      <stop offset="0%" style="stop-color: rgb(213, 232, 212); stop-opacity: 1;"></stop>
      <stop offset="100%" style="stop-color: rgb(151, 208, 119); stop-opacity: 1;"></stop>
    </linearGradient>
  </defs>
  <g>
    <path d="M 598.5 180.75 L 399.55 180.75" fill="none" stroke="rgb(0, 0, 0)" stroke-width="1.5" stroke-miterlimit="10"></path>
    <path d="M 391.68 180.75 L 402.18 175.5 L 399.55 180.75 L 402.18 186 Z" fill="rgb(0, 0, 0)" stroke="rgb(0, 0, 0)" stroke-width="1.5" stroke-miterlimit="10"></path>
    <path d="M 706.5 91.65 L 706.5 45 L 1045.5 45 L 1045.5 111.2" fill="none" stroke="rgb(0, 0, 0)" stroke-width="1.5" stroke-miterlimit="10"></path>
    <path d="M 1045.5 119.07 L 1040.25 108.57 L 1045.5 111.2 L 1050.75 108.57 Z" fill="rgb(0, 0, 0)" stroke="rgb(0, 0, 0)" stroke-width="1.5" stroke-miterlimit="10"></path>
    <g transform="translate(-0.5 -0.5)scale(1.5)">
      <switch>
        <text x="586" y="44" fill="rgb(0, 0, 0)" font-family="Helvetica" font-size="12px" text-anchor="middle">Left over stalks of the cereal crops</text>
      </switch>
    </g>
    <path d="M 780 180.75 L 840 180.75 L 840 387.95" fill="none" stroke="rgb(0, 0, 0)" stroke-width="1.5" stroke-miterlimit="10"></path>
    <path d="M 840 395.82 L 834.75 385.32 L 840 387.95 L 845.25 385.32 Z" fill="rgb(0, 0, 0)" stroke="rgb(0, 0, 0)" stroke-width="1.5" stroke-miterlimit="10"></path>
    <g transform="translate(-0.5 -0.5)scale(1.5)">
      <switch>
        <text x="561" y="197" fill="rgb(0, 0, 0)" font-family="Helvetica" font-size="12px" text-anchor="middle">Milk</text>
      </switch>
    </g>
    <ellipse cx="689.25" cy="180.75" rx="90.75" ry="90.75" fill="url(#mx-gradient-d5e8d4-1-97d077-1-s-0)" stroke="#82b366" stroke-width="1.5"></ellipse>
    <g transform="translate(-0.5 -0.5)scale(1.5)">
      <switch>
        <text x="459" y="124" fill="rgb(0, 0, 0)" font-family="Helvetica" font-size="12px" text-anchor="middle">COW</text>
      </switch>
    </g>
    <path d="M 1045.5 240.75 L 1045.5 300.5 L 1044.24 350.45" fill="none" stroke="rgb(0, 0, 0)" stroke-width="1.5" stroke-miterlimit="10"></path>
    <path d="M 1044.04 358.32 L 1039.06 347.69 L 1044.24 350.45 L 1049.56 347.96 Z" fill="rgb(0, 0, 0)" stroke="rgb(0, 0, 0)" stroke-width="1.5" stroke-miterlimit="10"></path>
    <g transform="translate(-0.5 -0.5)scale(1.5)">
      <switch>
        <text x="697" y="198" fill="rgb(0, 0, 0)" font-family="Helvetica" font-size="12px" text-anchor="middle">Surplus</text>
      </switch>
    </g>
    <path d="M 1066.5 124.55 L 1066.5 30 L 689.25 30 L 689.25 80.45" fill="none" stroke="rgb(0, 0, 0)" stroke-width="1.5" stroke-miterlimit="10"></path>
    <path d="M 689.25 88.32 L 684 77.82 L 689.25 80.45 L 694.5 77.82 Z" fill="rgb(0, 0, 0)" stroke="rgb(0, 0, 0)" stroke-width="1.5" stroke-miterlimit="10"></path>
    <g transform="translate(-0.5 -0.5)scale(1.5)">
      <switch>
        <text x="591" y="10" fill="rgb(0, 0, 0)" font-family="Helvetica" font-size="12px" text-anchor="middle">Bio pestiside Gobar fertilizer</text>
      </switch>
    </g>
    <path d="M 985.5 180.75 L 889.5 180.75 L 889.5 360 L 840 360 L 840 387.95" fill="none" stroke="rgb(0, 0, 0)" stroke-width="1.5" stroke-miterlimit="10"></path>
    <path d="M 840 395.82 L 834.75 385.32 L 840 387.95 L 845.25 385.32 Z" fill="rgb(0, 0, 0)" stroke="rgb(0, 0, 0)" stroke-width="1.5" stroke-miterlimit="10"></path>
    <g transform="translate(-0.5 -0.5)scale(1.5)">
      <switch>
        <text x="592" y="215" fill="rgb(0, 0, 0)" font-family="Helvetica" font-size="12px" text-anchor="middle">Dung</text>
      </switch>
    </g>
    <path d="M 365.84 239.09 L 481.5 239 L 481.5 285 L 811.5 285 L 811.5 255 L 1003 255 L 1003.05 232.73" fill="none" stroke="rgb(0, 0, 0)" stroke-width="1.5" stroke-miterlimit="10"></path>
    <path d="M 1003.07 224.85 L 1008.3 235.37 L 1003.05 232.73 L 997.8 235.34 Z" fill="rgb(0, 0, 0)" stroke="rgb(0, 0, 0)" stroke-width="1.5" stroke-miterlimit="10"></path>
    <g transform="translate(-0.5 -0.5)scale(1.5)">
      <switch>
        <text x="472" y="194" fill="rgb(0, 0, 0)" font-family="Helvetica" font-size="12px" text-anchor="middle">Seed</text>
      </switch>
    </g>
    <ellipse cx="1045.5" cy="180.75" rx="60" ry="60" fill="#dae8fc" stroke="#6c8ebf" stroke-width="1.5"></ellipse>
    <g transform="translate(-0.5 -0.5)scale(1.5)">
      <switch>
        <text x="697" y="124" fill="rgb(0, 0, 0)" font-family="Helvetica" font-size="12px" text-anchor="middle">Farm</text>
      </switch>
    </g>
    <path d="M 307.5 263.25 L 307.5 315 L 60 315 L 60 249.55" fill="none" stroke="rgb(0, 0, 0)" stroke-width="1.5" stroke-miterlimit="10"></path>
    <path d="M 60 241.68 L 65.25 252.18 L 60 249.55 L 54.75 252.18 Z" fill="rgb(0, 0, 0)" stroke="rgb(0, 0, 0)" stroke-width="1.5" stroke-miterlimit="10"></path>
    <g transform="translate(-0.5 -0.5)scale(1.5)">
      <switch>
        <text x="127" y="204" fill="rgb(0, 0, 0)" font-family="Helvetica" font-size="12px" text-anchor="middle">Repay</text>
      </switch>
    </g>
    <path d="M 390 180.75 L 588.95 180.75" fill="none" stroke="rgb(0, 0, 0)" stroke-width="1.5" stroke-miterlimit="10"></path>
    <path d="M 596.82 180.75 L 586.32 186 L 588.95 180.75 L 586.32 175.5 Z" fill="rgb(0, 0, 0)" stroke="rgb(0, 0, 0)" stroke-width="1.5" stroke-miterlimit="10"></path>
    <g transform="translate(-0.5 -0.5)scale(1.5)">
      <switch>
        <text x="326" y="110" fill="rgb(0, 0, 0)" font-family="Helvetica" font-size="12px" text-anchor="middle">Feed and Fooder</text>
      </switch>
    </g>
    <g transform="translate(-0.5 -0.5)scale(1.5)">
      <switch>
        <text x="323" y="141" fill="rgb(0, 0, 0)" font-family="Helvetica" font-size="12px" text-anchor="middle">Milk</text>
      </switch>
    </g>
    <path d="M 307.5 263.25 L 307.5 360 L 840 360 L 840 387.95" fill="none" stroke="rgb(0, 0, 0)" stroke-width="1.5" stroke-miterlimit="10"></path>
    <path d="M 840 395.82 L 834.75 385.32 L 840 387.95 L 845.25 385.32 Z" fill="rgb(0, 0, 0)" stroke="rgb(0, 0, 0)" stroke-width="1.5" stroke-miterlimit="10"></path>
    <g transform="translate(-0.5 -0.5)scale(1.5)">
      <switch>
        <text x="348" y="252" fill="rgb(0, 0, 0)" font-family="Helvetica" font-size="12px" text-anchor="middle">Urine</text>
      </switch>
    </g>
    <ellipse cx="307.5" cy="180.75" rx="82.5" ry="82.5" fill="#dae8fc" stroke="#6c8ebf" stroke-width="1.5"></ellipse>
    <g transform="translate(-0.5 -0.5)scale(1.5)">
      <switch>
        <text x="205" y="124" fill="rgb(0, 0, 0)" font-family="Helvetica" font-size="12px" text-anchor="middle">Village Household</text>
      </switch>
    </g>
    <path d="M 60 120 L 60 60 L 307.5 60 L 307.5 88.7" fill="none" stroke="rgb(0, 0, 0)" stroke-width="1.5" stroke-miterlimit="10"></path>
    <path d="M 307.5 96.57 L 302.25 86.07 L 307.5 88.7 L 312.75 86.07 Z" fill="rgb(0, 0, 0)" stroke="rgb(0, 0, 0)" stroke-width="1.5" stroke-miterlimit="10"></path>
    <g transform="translate(-0.5 -0.5)scale(1.5)">
      <switch>
        <text x="127" y="54" fill="rgb(0, 0, 0)" font-family="Helvetica" font-size="12px" text-anchor="middle">Microfinance</text>
      </switch>
    </g>
    <ellipse cx="60" cy="180" rx="60" ry="60" fill="#f9f7ed" stroke="#36393d" stroke-width="1.5"></ellipse>
    <g transform="translate(-0.5 -0.5)scale(1.5)">
      <switch>
        <text x="40" y="124" fill="rgb(0, 0, 0)" font-family="Helvetica" font-size="12px" text-anchor="middle">Finance</text>
      </switch>
    </g>
    <path d="M 840 577.5 L 841.47 980.45" fill="none" stroke="rgb(0, 0, 0)" stroke-width="1.5" stroke-miterlimit="10"></path>
    <path d="M 841.49 988.32 L 836.21 977.84 L 841.47 980.45 L 846.71 977.8 Z" fill="rgb(0, 0, 0)" stroke="rgb(0, 0, 0)" stroke-width="1.5" stroke-miterlimit="10"></path>
    <path d="M 799.14 408.84 L 796.5 409 L 796.5 330 L 481.5 330 L 481.5 239 L 375.39 239.08" fill="none" stroke="rgb(0, 0, 0)" stroke-width="1.5" stroke-miterlimit="10"></path>
    <path d="M 367.51 239.09 L 378.01 233.83 L 375.39 239.08 L 378.02 244.33 Z" fill="rgb(0, 0, 0)" stroke="rgb(0, 0, 0)" stroke-width="1.5" stroke-miterlimit="10"></path>
    <g transform="translate(-0.5 -0.5)scale(1.5)">
      <switch>
        <text x="403" y="213" fill="rgb(0, 0, 0)" font-family="Helvetica" font-size="12px" text-anchor="middle">Revenue</text>
      </switch>
    </g>
    <ellipse cx="840" cy="487.5" rx="90" ry="90" fill="#dae8fc" stroke="#6c8ebf" stroke-width="1.5"></ellipse>
    <g transform="translate(-0.5 -0.5)scale(1.5)">
      <switch>
        <text x="560" y="329" fill="rgb(0, 0, 0)" font-family="Helvetica" font-size="12px" text-anchor="middle">Village Exchange</text>
      </switch>
    </g>
    <ellipse cx="354" cy="489" rx="67.5" ry="67.5" fill="#dae8fc" stroke="#6c8ebf" stroke-width="1.5"></ellipse>
    <g transform="translate(-0.5 -0.5)scale(1.5)">
      <switch>
        <text x="236" y="330" fill="rgb(0, 0, 0)" font-family="Helvetica" font-size="12px" text-anchor="middle">Village</text>
      </switch>
    </g>
    <path d="M 976.5 458.25 L 938.09 482.41" fill="none" stroke="rgb(0, 0, 0)" stroke-width="1.5" stroke-miterlimit="10"></path>
    <path d="M 931.42 486.61 L 937.51 476.57 L 938.09 482.41 L 943.1 485.46 Z" fill="rgb(0, 0, 0)" stroke="rgb(0, 0, 0)" stroke-width="1.5" stroke-miterlimit="10"></path>
    <path d="M 750 487.5 L 431.05 488.96" fill="none" stroke="rgb(0, 0, 0)" stroke-width="1.5" stroke-miterlimit="10"></path>
    <path d="M 423.18 488.99 L 433.65 483.69 L 431.05 488.96 L 433.7 494.19 Z" fill="rgb(0, 0, 0)" stroke="rgb(0, 0, 0)" stroke-width="1.5" stroke-miterlimit="10"></path>
    <ellipse cx="166.5" cy="630" rx="60" ry="60" fill="#f9f7ed" stroke="#36393d" stroke-width="1.5"></ellipse>
    <g transform="translate(-0.5 -0.5)scale(1.5)">
      <switch>
        <text x="111" y="424" fill="rgb(0, 0, 0)" font-family="Helvetica" font-size="12px" text-anchor="middle">Farm...</text>
      </switch>
    </g>
    <path d="M 60 945 L 60 750 L 352.5 750 L 352.5 566.05" fill="none" stroke="rgb(0, 0, 0)" stroke-width="1.5" stroke-miterlimit="10"></path>
    <path d="M 352.5 558.18 L 357.75 568.68 L 352.5 566.05 L 347.25 568.68 Z" fill="rgb(0, 0, 0)" stroke="rgb(0, 0, 0)" stroke-width="1.5" stroke-miterlimit="10"></path>
    <ellipse cx="60" cy="1005" rx="60" ry="60" fill="#f9f7ed" stroke="#36393d" stroke-width="1.5"></ellipse>
    <g transform="translate(-0.5 -0.5)scale(1.5)">
      <switch>
        <text x="40" y="674" fill="rgb(0, 0, 0)" font-family="Helvetica" font-size="12px" text-anchor="middle">Training</text>
      </switch>
    </g>
    <path d="M 187.5 1050 L 187.5 750 L 354 750 L 354 566.05" fill="none" stroke="rgb(0, 0, 0)" stroke-width="1.5" stroke-miterlimit="10"></path>
    <path d="M 354 558.18 L 359.25 568.68 L 354 566.05 L 348.75 568.68 Z" fill="rgb(0, 0, 0)" stroke="rgb(0, 0, 0)" stroke-width="1.5" stroke-miterlimit="10"></path>
    <ellipse cx="187.5" cy="1117.5" rx="67.5" ry="67.5" fill="#f9f7ed" stroke="#36393d" stroke-width="1.5"></ellipse>
    <g transform="translate(-0.5 -0.5)scale(1.5)">
      <switch>
        <text x="125" y="749" fill="rgb(0, 0, 0)" font-family="Helvetica" font-size="12px" text-anchor="middle">Water harvesting</text>
      </switch>
    </g>
    <path d="M 354 900 L 354 566.05" fill="none" stroke="rgb(0, 0, 0)" stroke-width="1.5" stroke-miterlimit="10"></path>
    <path d="M 354 558.18 L 359.25 568.68 L 354 566.05 L 348.75 568.68 Z" fill="rgb(0, 0, 0)" stroke="rgb(0, 0, 0)" stroke-width="1.5" stroke-miterlimit="10"></path>
    <ellipse cx="354" cy="990" rx="90" ry="90" fill="#f9f7ed" stroke="#36393d" stroke-width="1.5"></ellipse>
    <g transform="translate(-0.5 -0.5)scale(1.5)">
      <switch>
        <text x="236" y="664" fill="rgb(0, 0, 0)" font-family="Helvetica" font-size="12px" text-anchor="middle">Hydroponic...</text>
      </switch>
    </g>
    <ellipse cx="623.25" cy="668.25" rx="98.25" ry="98.25" fill="#f9f7ed" stroke="#36393d" stroke-width="1.5"></ellipse>
    <g transform="translate(-0.5 -0.5)scale(1.5)">
      <switch>
        <text x="416" y="449" fill="rgb(0, 0, 0)" font-family="Helvetica" font-size="12px" text-anchor="middle">Indigenous breed devel...</text>
      </switch>
    </g>
    <path d="M 214.39 593.86 L 292.29 535.13" fill="none" stroke="rgb(0, 0, 0)" stroke-width="1.5" stroke-miterlimit="10"></path>
    <path d="M 298.57 530.39 L 293.35 540.91 L 292.29 535.13 L 287.03 532.52 Z" fill="rgb(0, 0, 0)" stroke="rgb(0, 0, 0)" stroke-width="1.5" stroke-miterlimit="10"></path>
    <path d="M 538.66 618.27 L 409.94 541.62" fill="none" stroke="rgb(0, 0, 0)" stroke-width="1.5" stroke-miterlimit="10"></path>
    <path d="M 403.17 537.59 L 414.88 538.45 L 409.94 541.62 L 409.51 547.47 Z" fill="rgb(0, 0, 0)" stroke="rgb(0, 0, 0)" stroke-width="1.5" stroke-miterlimit="10"></path>
    <path d="M 841.5 990 L 841.5 900 L 759.53 900" fill="none" stroke="rgb(0, 0, 0)" stroke-width="1.5" stroke-miterlimit="10"></path>
    <path d="M 751.66 900 L 762.16 894.75 L 759.53 900 L 762.16 905.25 Z" fill="rgb(0, 0, 0)" stroke="rgb(0, 0, 0)" stroke-width="1.5" stroke-miterlimit="10"></path>
    <path d="M 840 1080 L 840 1140 L 996.95 1140" fill="none" stroke="rgb(0, 0, 0)" stroke-width="1.5" stroke-miterlimit="10"></path>
    <path d="M 1004.82 1140 L 994.32 1145.25 L 996.95 1140 L 994.32 1134.75 Z" fill="rgb(0, 0, 0)" stroke="rgb(0, 0, 0)" stroke-width="1.5" stroke-miterlimit="10"></path>
    <g transform="translate(-0.5 -0.5)scale(1.5)">
      <switch>
        <text x="604" y="772" fill="rgb(0, 0, 0)" font-family="Helvetica" font-size="12px" text-anchor="middle">Dung</text>
      </switch>
    </g>
    <path d="M 930 1035 L 961.5 1035 L 961.56 909.55" fill="none" stroke="rgb(0, 0, 0)" stroke-width="1.5" stroke-miterlimit="10"></path>
    <path d="M 961.56 901.68 L 966.8 912.18 L 961.56 909.55 L 956.3 912.17 Z" fill="rgb(0, 0, 0)" stroke="rgb(0, 0, 0)" stroke-width="1.5" stroke-miterlimit="10"></path>
    <g transform="translate(-0.5 -0.5)scale(1.5)">
      <switch>
        <text x="642" y="648" fill="rgb(0, 0, 0)" font-family="Helvetica" font-size="12px" text-anchor="middle">Urine</text>
      </switch>
    </g>
    <rect x="750" y="990" width="180" height="90" rx="13.5" ry="13.5" fill="#d5e8d4" stroke="#82b366" stroke-width="1.5"></rect>
    <g transform="translate(-0.5 -0.5)scale(1.5)">
      <switch>
        <text x="560" y="694" fill="rgb(0, 0, 0)" font-family="Helvetica" font-size="12px" text-anchor="middle">Milk Processing</text>
      </switch>
    </g>
    <ellipse cx="930" cy="846" rx="60" ry="60" fill="#f9f7ed" stroke="#36393d" stroke-width="1.5"></ellipse>
    <g transform="translate(-0.5 -0.5)scale(1.5)">
      <switch>
        <text x="620" y="568" fill="rgb(0, 0, 0)" font-family="Helvetica" font-size="12px" text-anchor="middle">Gomutra disti...</text>
      </switch>
    </g>
    <path d="M 690 961.5 L 690 1175.45" fill="none" stroke="rgb(0, 0, 0)" stroke-width="1.5" stroke-miterlimit="10"></path>
    <path d="M 690 1183.32 L 684.75 1172.82 L 690 1175.45 L 695.25 1172.82 Z" fill="rgb(0, 0, 0)" stroke="rgb(0, 0, 0)" stroke-width="1.5" stroke-miterlimit="10"></path>
    <ellipse cx="690" cy="901.5" rx="60" ry="60" fill="#f9f7ed" stroke="#36393d" stroke-width="1.5"></ellipse>
    <g transform="translate(-0.5 -0.5)scale(1.5)">
      <switch>
        <text x="460" y="605" fill="rgb(0, 0, 0)" font-family="Helvetica" font-size="12px" text-anchor="middle">Cottage Indus...</text>
      </switch>
    </g>
    <path d="M 600 1267.5 L 526.5 1267.5 L 526.5 1194.55" fill="none" stroke="rgb(0, 0, 0)" stroke-width="1.5" stroke-miterlimit="10"></path>
    <path d="M 526.5 1186.68 L 531.75 1197.18 L 526.5 1194.55 L 521.25 1197.18 Z" fill="rgb(0, 0, 0)" stroke="rgb(0, 0, 0)" stroke-width="1.5" stroke-miterlimit="10"></path>
    <path d="M 645 1226.25 L 678.94 1195.14 Q 690 1185 701.06 1195.14 L 768.94 1257.36 Q 780 1267.5 768.94 1277.64 L 701.06 1339.86 Q 690 1350 678.94 1339.86 L 611.06 1277.64 Q 600 1267.5 611.06 1257.36 Z" fill="#f9f7ed" stroke="#36393d" stroke-width="1.5" stroke-miterlimit="10"></path>
    <g transform="translate(-0.5 -0.5)scale(1.5)">
      <switch>
        <text x="460" y="849" fill="rgb(0, 0, 0)" font-family="Helvetica" font-size="12px" text-anchor="middle">Milk Products</text>
      </switch>
    </g>
    <path d="M 526.5 1020 L 526.5 954.55" fill="none" stroke="rgb(0, 0, 0)" stroke-width="1.5" stroke-miterlimit="10"></path>
    <path d="M 526.5 946.68 L 531.75 957.18 L 526.5 954.55 L 521.25 957.18 Z" fill="rgb(0, 0, 0)" stroke="rgb(0, 0, 0)" stroke-width="1.5" stroke-miterlimit="10"></path>
    <ellipse cx="526.5" cy="1102.5" rx="82.5" ry="82.5" fill="#f9f7ed" stroke="#36393d" stroke-width="1.5"></ellipse>
    <g transform="translate(-0.5 -0.5)scale(1.5)">
      <switch>
        <text x="351" y="739" fill="rgb(0, 0, 0)" font-family="Helvetica" font-size="12px" text-anchor="middle">Ayurveda</text>
      </switch>
    </g>
    <path d="M 526.5 825 L 526.5 750 L 354 750 L 354 566.05" fill="none" stroke="rgb(0, 0, 0)" stroke-width="1.5" stroke-miterlimit="10"></path>
    <path d="M 354 558.18 L 359.25 568.68 L 354 566.05 L 348.75 568.68 Z" fill="rgb(0, 0, 0)" stroke="rgb(0, 0, 0)" stroke-width="1.5" stroke-miterlimit="10"></path>
    <ellipse cx="526.5" cy="885" rx="60" ry="60" fill="#f9f7ed" stroke="#36393d" stroke-width="1.5"></ellipse>
    <g transform="translate(-0.5 -0.5)scale(1.5)">
      <switch>
        <text x="351" y="594" fill="rgb(0, 0, 0)" font-family="Helvetica" font-size="12px" text-anchor="middle">Market channe...</text>
      </switch>
    </g>
    <path d="M 1066.5 634.5 L 1066.5 595.5 L 1044 595.5 L 1044 566.05" fill="none" stroke="rgb(0, 0, 0)" stroke-width="1.5" stroke-miterlimit="10"></path>
    <path d="M 1044 558.18 L 1049.25 568.68 L 1044 566.05 L 1038.75 568.68 Z" fill="rgb(0, 0, 0)" stroke="rgb(0, 0, 0)" stroke-width="1.5" stroke-miterlimit="10"></path>
    <ellipse cx="1066.5" cy="722.25" rx="90" ry="87.75000000000001" fill="#f9f7ed" stroke="#36393d" stroke-width="1.5"></ellipse>
    <g transform="translate(-0.5 -0.5)scale(1.5)">
      <switch>
        <text x="711" y="485" fill="rgb(0, 0, 0)" font-family="Helvetica" font-size="12px" text-anchor="middle">Electricity...</text>
      </switch>
    </g>
    <path d="M 1066.5 865.5 L 1066.5 835.5 L 1066.5 840 L 1066.5 819.55" fill="none" stroke="rgb(0, 0, 0)" stroke-width="1.5" stroke-miterlimit="10"></path>
    <path d="M 1066.5 811.68 L 1071.75 822.18 L 1066.5 819.55 L 1061.25 822.18 Z" fill="rgb(0, 0, 0)" stroke="rgb(0, 0, 0)" stroke-width="1.5" stroke-miterlimit="10"></path>
    <ellipse cx="1066.5" cy="925.5" rx="60" ry="60" fill="#f9f7ed" stroke="#36393d" stroke-width="1.5"></ellipse>
    <g transform="translate(-0.5 -0.5)scale(1.5)">
      <switch>
        <text x="711" y="621" fill="rgb(0, 0, 0)" font-family="Helvetica" font-size="12px" text-anchor="middle">Biogas</text>
      </switch>
    </g>
    <path d="M 1066.5 1080 L 1066.5 995.05" fill="none" stroke="rgb(0, 0, 0)" stroke-width="1.5" stroke-miterlimit="10"></path>
    <path d="M 1066.5 987.18 L 1071.75 997.68 L 1066.5 995.05 L 1061.25 997.68 Z" fill="rgb(0, 0, 0)" stroke="rgb(0, 0, 0)" stroke-width="1.5" stroke-miterlimit="10"></path>
    <path d="M 1066.5 1200 L 1066.5 1230 L 1066.5 1215 L 1066.5 1235.45" fill="none" stroke="rgb(0, 0, 0)" stroke-width="1.5" stroke-miterlimit="10"></path>
    <path d="M 1066.5 1243.32 L 1061.25 1232.82 L 1066.5 1235.45 L 1071.75 1232.82 Z" fill="rgb(0, 0, 0)" stroke="rgb(0, 0, 0)" stroke-width="1.5" stroke-miterlimit="10"></path>
    <ellipse cx="1066.5" cy="1140" rx="60" ry="60" fill="#f9f7ed" stroke="#36393d" stroke-width="1.5"></ellipse>
    <g transform="translate(-0.5 -0.5)scale(1.5)">
      <switch>
        <text x="711" y="764" fill="rgb(0, 0, 0)" font-family="Helvetica" font-size="12px" text-anchor="middle">Dung Products</text>
      </switch>
    </g>
    <ellipse cx="1066.5" cy="1305" rx="60" ry="60" fill="#f9f7ed" stroke="#36393d" stroke-width="1.5"></ellipse>
    <g transform="translate(-0.5 -0.5)scale(1.5)">
      <switch>
        <text x="711" y="874" fill="rgb(0, 0, 0)" font-family="Helvetica" font-size="12px" text-anchor="middle">Bio fertilizer</text>
      </switch>
    </g>
    <rect x="976.5" y="360" width="135" height="196.5" rx="20.25" ry="20.25" fill="#d5e8d4" stroke="#82b366" stroke-width="1.5"></rect>
    <g transform="translate(-0.5 -0.5)scale(1.5)">
      <switch>
        <text x="696" y="309" fill="rgb(0, 0, 0)" font-family="Helvetica" font-size="12px" text-anchor="middle">Food Processing</text>
      </switch>
    </g>
  </g>
  <switch>
    <g></g>
    <a transform="translate(0,-5)" xlink:href="https://www.drawio.com/doc/faq/svg-export-text-problems">
      <text text-anchor="middle" font-size="10px" x="50%" y="100%">Text is not SVG - cannot display</text>
    </a>
  </switch>
</svg>
