<?xml version="1.0" encoding="UTF-8" standalone="no"?>
<svg xmlns="http://www.w3.org/2000/svg" version="1.0" width="66.000000pt" height="66.000000pt" viewBox="0 0 66.000000 66.000000" preserveAspectRatio="xMidYMid meet">
  <g transform="translate(0.000000,66.000000) scale(0.100000,-0.100000)" fill="#000000" stroke="none">
    <path d="M523 532 l-42 -44 -93 6 c-59 5 -103 4 -121 -3 -46 -18 -105 1 -145 46 l-33 38 6 -30 c11 -51 39 -89 73 -100 25 -7 32 -15 32 -34 0 -22 -1 -23 -18 -8 -29 26 -69 38 -97 27 -34 -13 -31 -36 9 -76 25 -25 43 -34 68 -34 l35 0 27 -87 c14 -49 26 -93 26 -99 0 -17 57 -54 83 -54 24 0 77 38 77 55 0 6 12 49 26 98 l27 87 35 0 c25 0 43 9 68 34 40 40 43 63 9 76 -28 11 -68 -1 -97 -27 -17 -15 -18 -14 -18 10 0 20 7 28 34 37 26 8 39 22 56 57 31 66 21 75 -27 25z m12 -32 c-16 -31 -58 -55 -82 -46 -23 9 -14 23 17 30 17 3 40 16 53 29 29 30 32 26 12 -13z m-339 -20 c27 0 33 -17 9 -26 -27 -11 -60 4 -78 35 -25 42 -21 46 14 17 17 -14 41 -26 55 -26z m161 -52 c10 -23 -12 -108 -28 -108 -14 0 -40 46 -35 61 2 8 7 26 10 42 8 33 39 37 53 5z m-195 -48 l33 -29 -37 -1 c-29 0 -41 6 -58 30 l-21 30 25 0 c14 0 40 -13 58 -30z m398 0 c-17 -24 -29 -30 -58 -30 l-37 1 33 29 c18 17 44 30 58 30 l25 0 -21 -30z m-316 -2 c11 -15 14 -34 10 -59 -4 -20 -1 -53 6 -73 7 -23 8 -41 2 -52 -13 -24 -52 94 -52 158 0 52 10 60 34 26z m206 -26 c0 -64 -39 -182 -52 -158 -6 11 -5 29 2 52 7 20 10 53 6 73 -4 25 -1 44 10 59 24 34 34 26 34 -26z m-74 -184 c-3 -13 -6 -26 -6 -30 0 -5 -18 -8 -40 -8 -22 0 -40 3 -40 8 0 4 -3 17 -6 30 -6 21 -3 22 46 22 49 0 52 -1 46 -22z m-23 -70 c-17 -8 -29 -8 -45 0 -20 9 -18 11 22 11 40 0 42 -2 23 -11z"></path>
    <path d="M220 358 c0 -18 18 -34 28 -24 3 4 -2 14 -11 23 -16 16 -17 16 -17 1z"></path>
    <path d="M421 356 c-8 -9 -11 -19 -7 -23 9 -9 29 13 24 27 -2 8 -8 7 -17 -4z"></path>
    <path d="M296 167 c3 -10 9 -15 12 -12 3 3 0 11 -7 18 -10 9 -11 8 -5 -6z"></path>
    <path d="M355 169 c-4 -6 -5 -12 -2 -15 2 -3 7 2 10 11 7 17 1 20 -8 4z"></path>
  </g>
</svg>
